<?xml version="1.0" encoding="utf-8"?>
<!-- Generator: Adobe Illustrator 16.0.0, SVG Export Plug-In . SVG Version: 6.00 Build 0)  -->
<!DOCTYPE svg PUBLIC "-//W3C//DTD SVG 1.1//EN" "http://www.w3.org/Graphics/SVG/1.1/DTD/svg11.dtd">
<svg version="1.1" id="Layer_1" xmlns="http://www.w3.org/2000/svg" xmlns:xlink="http://www.w3.org/1999/xlink" x="0px" y="0px"
	 width="204.01px" height="146.628px" viewBox="0 0 204.01 146.628" enable-background="new 0 0 204.01 146.628"
	 xml:space="preserve">
<g id="Layer_x0020_1">
	
		<linearGradient id="SVGID_1_" gradientUnits="userSpaceOnUse" x1="2597.4297" y1="-2304.7515" x2="3517.1479" y2="-1804.9031" gradientTransform="matrix(0.0967 0 0 -0.0967 -235.5044 -164.4777)">
		<stop  offset="0" style="stop-color:#E96B00"/>
		<stop  offset="1" style="stop-color:#F89900"/>
	</linearGradient>
	<path fill="url(#SVGID_1_)" d="M33.479,57.742C29.513,84.92,70.232,30.854,94.799,30.467c2.031-0.387,4.062-0.58,6.19-0.774
		c11.413-1.064,16.056-1.547,24.76-4.159C109.21,8.608,85.417,6.48,48.374,22.536c-7.447,5.707-13.831,12.187-23.31,18.087
		C7.268,52.422,3.689,43.137,7.558,35.98c-14.701,8.125-7.254,32.595,17.12,30.66C26.902,58.999,29.707,57.839,33.479,57.742z"/>
	
		<linearGradient id="SVGID_2_" gradientUnits="userSpaceOnUse" x1="2935.0439" y1="-1832.5532" x2="3875.8359" y2="-1832.5532" gradientTransform="matrix(0.0967 0 0 -0.0967 -235.5044 -164.4777)">
		<stop  offset="0" style="stop-color:#FFCA1E"/>
		<stop  offset="1" style="stop-color:#FFB600"/>
	</linearGradient>
	<path fill="url(#SVGID_2_)" d="M48.374,22.536C85.417,6.48,109.21,8.608,125.749,25.534C136.485,20.311,140.258,11.413,139.194,0
		c-3.579,4.063-9.285,5.803-16.443,5.707C78.647,4.159,61.817,12.187,48.374,22.536z"/>
	<path fill="#FFCC29" d="M139.194,0c1.063,11.413-2.709,20.311-13.445,25.534c-8.704,2.611-13.347,3.095-24.76,4.159
		c3.676-0.29,7.351-0.29,11.026,0.097c6.479,0.677,12.863,2.224,19.344,4.449c7.737,2.805,15.476,6.674,23.213,11.316
		c8.995,2.128,19.15,2.418,29.597-1.935c-10.93-9.285-21.375-19.15-34.336-19.15C149.543,14.702,149.543,8.125,139.194,0z"/>
	<path fill="#824F1F" d="M184.169,43.621c-10.446,4.353-20.602,4.063-29.597,1.935l15.959,7.061
		C169.563,48.36,178.559,46.619,184.169,43.621z"/>
	<path fill="#FAA831" d="M184.169,43.621c-5.61,2.999-14.605,4.739-13.638,8.995l6.19,2.805c1.644-1.645,3.288-3.676,4.643-5.9
		C182.524,47.586,183.491,45.555,184.169,43.621z"/>
	<path fill="#FFDD00" d="M181.364,49.521c-1.354,2.225-2.999,4.256-4.643,5.9l12.186,10.252h15.089L181.364,49.521z"/>
	<polygon fill="#824F1F" points="203.996,65.673 188.907,65.673 192.003,71.573 199.063,71.573 	"/>
	<path fill="#FFCC29" d="M199.063,71.573h-7.061c2.321,2.418,2.611,7.544,1.741,14.024
		C197.517,82.889,199.063,78.053,199.063,71.573z"/>
	<path fill="#FFBE00" d="M193.744,85.597c0.87-6.48,0.58-11.606-1.741-14.024l-3.096-5.9l-12.186-10.252l-10.446,6.577
		c4.256,7.157,3.192,14.799-3.481,23.02c8.027,0.097,13.83,5.416,19.924,5.9C186.2,91.207,189.682,89.95,193.744,85.597z"/>
	
		<linearGradient id="SVGID_3_" gradientUnits="userSpaceOnUse" x1="4022.0371" y1="-2633.0366" x2="4306.6162" y2="-2707.5764" gradientTransform="matrix(0.0967 0 0 -0.0967 -235.5044 -164.4777)">
		<stop  offset="0" style="stop-color:#F77500"/>
		<stop  offset="1" style="stop-color:#F88900"/>
	</linearGradient>
	<path fill="url(#SVGID_3_)" d="M182.718,90.917c-6.094-0.484-11.896-5.804-19.924-5.9c-2.999,2.321-6.674,4.063-11.123,5.126
		c2.901,0.097,5.416,0.677,7.737,1.548c5.319,2.127,9.092,6.287,12.09,11.412C178.075,101.556,182.331,97.88,182.718,90.917z"/>
	<path fill="#FF9B00" d="M151.671,90.143c4.449-1.063,8.124-2.805,11.123-5.126c-13.541-1.645-23.697,0.483-31.048,5.514h0.097
		c4.353,0.58,8.318,0.773,11.703,0.676C146.544,91.111,149.253,90.724,151.671,90.143z"/>
	
		<linearGradient id="SVGID_4_" gradientUnits="userSpaceOnUse" x1="3811.4131" y1="-2644.9058" x2="4098.7129" y2="-2377.6558" gradientTransform="matrix(0.0967 0 0 -0.0967 -235.5044 -164.4777)">
		<stop  offset="0" style="stop-color:#FFB900"/>
		<stop  offset="1" style="stop-color:#FF9A00"/>
	</linearGradient>
	<path fill="url(#SVGID_4_)" d="M131.746,90.531c7.351-5.03,17.507-7.158,31.048-5.514c6.674-8.221,7.737-15.862,3.481-23.02
		l-10.735,2.611l-16.637,0.097c-3.385,10.253-9.865,16.927-17.699,21.956L131.746,90.531z"/>
	<path fill="#FFDD00" d="M138.903,64.706l16.637-0.097c-5.127-11.606-12.478-21.568-24.181-30.37
		C136.872,42.653,139.388,52.326,138.903,64.706z"/>
	<path fill="#FFBE00" d="M131.359,34.239c11.703,8.802,19.054,18.764,24.181,30.37l10.735-2.611l10.446-6.577l-6.19-2.805
		l-15.959-7.061C146.835,40.913,139.097,37.044,131.359,34.239z"/>
	<path fill="#FD7B00" d="M138.903,64.706c0.484-12.38-2.031-22.052-7.544-30.467c-6.48-2.225-12.864-3.772-19.344-4.449
		c6.286,9.091,5.997,18.86-1.741,28.822L138.903,64.706z"/>
	<path fill="#F48900" d="M110.274,58.612c7.738-9.962,8.027-19.731,1.741-28.822c-3.676-0.387-7.351-0.387-11.026-0.097
		c-2.128,0.194-4.159,0.387-6.19,0.774c-23.116,3.675-31.047,25.921-49.424,43.234C70.232,60.547,80.582,56.484,110.274,58.612z"/>
	
		<linearGradient id="SVGID_5_" gradientUnits="userSpaceOnUse" x1="2778.5117" y1="-2417.0366" x2="3280.5891" y2="-2040.4771" gradientTransform="matrix(0.0967 0 0 -0.0967 -235.5044 -164.4777)">
		<stop  offset="0" style="stop-color:#FFBC00"/>
		<stop  offset="0.8196" style="stop-color:#FDA400"/>
		<stop  offset="1" style="stop-color:#FB8C00"/>
	</linearGradient>
	<path fill="url(#SVGID_5_)" d="M45.375,73.701c18.377-17.313,26.308-39.559,49.424-43.234
		C70.232,30.854,29.513,84.92,33.479,57.742c-3.772,0.097-6.577,1.257-8.801,8.898c0.58,11.22,8.705,13.831,19.538,7.738
		C44.505,74.185,44.892,73.991,45.375,73.701z"/>
	
		<linearGradient id="SVGID_6_" gradientUnits="userSpaceOnUse" x1="3085.0635" y1="-2526.8735" x2="3397.6604" y2="-2241.0725" gradientTransform="matrix(0.0967 0 0 -0.0967 -235.5044 -164.4777)">
		<stop  offset="0" style="stop-color:#E46000"/>
		<stop  offset="0.2588" style="stop-color:#E96900"/>
		<stop  offset="1" style="stop-color:#EE7200"/>
	</linearGradient>
	<path fill="url(#SVGID_6_)" d="M110.274,58.612c-29.693-2.128-40.042,1.935-64.899,15.088c6.287-2.805,14.895-3.289,23.987-3.675
		C84.644,69.445,101.086,69.155,110.274,58.612z"/>
	<path fill="#FC8900" d="M110.274,58.612c-9.188,10.542-25.631,10.833-40.913,11.413c16.926,1.838,34.239,7.64,51.842,16.636
		c7.834-5.029,14.314-11.703,17.699-21.956L110.274,58.612z"/>
	<path fill="#FF9500" d="M100.119,94.399l-40.913-2.321c1.257,5.416-2.515,13.154-12.09,13.443c-2.321,0-4.449-0.387-6.19-1.063
		c-3.289,5.898-1.451,11.896,3.095,17.119c-0.193-5.997,5.126-9.77,10.156-12.188c5.126-0.193,7.254,0.387,12.477,0.193
		c4.352,2.805,8.801,4.934,13.154,7.738l16.829-0.484C95.573,109.39,97.121,101.943,100.119,94.399z"/>
	
		<linearGradient id="SVGID_7_" gradientUnits="userSpaceOnUse" x1="3430.5771" y1="-2906.561" x2="3797.0439" y2="-2906.561" gradientTransform="matrix(0.0967 0 0 -0.0967 -235.5044 -164.4777)">
		<stop  offset="0" style="stop-color:#EF7200"/>
		<stop  offset="1" style="stop-color:#EC5F00"/>
	</linearGradient>
	<path fill="url(#SVGID_7_)" d="M100.119,94.399c-2.998,7.544-4.545,14.991-3.482,22.438c1.451,9.963,7.642,19.925,21.569,29.791
		c-0.968-5.127-1.548-10.06-1.838-14.896c-0.968-17.99,3.481-33.272,15.378-41.202l-10.542-3.869L100.119,94.399z"/>
	
		<linearGradient id="SVGID_8_" gradientUnits="userSpaceOnUse" x1="3651.0986" y1="-2973.2241" x2="3888.9404" y2="-2710.772" gradientTransform="matrix(0.0967 0 0 -0.0967 -235.5044 -164.4777)">
		<stop  offset="0" style="stop-color:#ECBC00"/>
		<stop  offset="1" style="stop-color:#F48400"/>
	</linearGradient>
	<path fill="url(#SVGID_8_)" d="M131.746,90.531c-11.896,7.93-16.346,23.212-15.378,41.202c4.738-0.483,9.188-1.741,13.541-3.868
		c-1.742-2.419-2.999-5.32-3.482-8.416c-1.838-10.154,3.191-22.438,17.119-28.242c-3.385,0.098-7.351-0.096-11.703-0.676H131.746z"
		/>
	<path fill="#FF9B00" d="M143.546,91.207c-13.928,5.804-18.957,18.088-17.119,28.242c8.995-0.482,17.313-4.932,24.083-10.349
		c-1.644-7.737-0.29-15.089,8.898-17.409c-2.321-0.871-4.836-1.451-7.737-1.548C149.253,90.724,146.544,91.111,143.546,91.207z"/>
	<path fill="#FF9B00" d="M150.51,109.1c-6.771,5.417-15.088,9.866-24.083,10.349c0.483,3.096,1.74,5.997,3.482,8.416
		C140.161,123.802,147.608,117.999,150.51,109.1z"/>
	<path fill="#FFF700" d="M133.681,131.83c-1.451-1.16-2.708-2.515-3.771-3.965c-4.354,2.127-8.803,3.385-13.541,3.868
		c0.29,4.836,0.87,9.769,1.838,14.896C123.429,135.794,128.555,131.83,133.681,131.83z"/>
	<path fill="#F58500" d="M103.407,132.796c-3.869-5.319-5.997-10.639-6.771-15.959l-16.829,0.484
		c-7.834,3.482-9.285,6.867-9.769,10.252C81.742,123.222,87.642,133.281,103.407,132.796z"/>
	
		<linearGradient id="SVGID_9_" gradientUnits="userSpaceOnUse" x1="2775.9746" y1="-2602.5571" x2="3688.0518" y2="-2602.5571" gradientTransform="matrix(0.0967 0 0 -0.0967 -235.5044 -164.4777)">
		<stop  offset="0" style="stop-color:#D71E00"/>
		<stop  offset="1" style="stop-color:#FF6D00"/>
	</linearGradient>
	<path fill="url(#SVGID_9_)" d="M49.534,87.532c5.513-1.935,8.802,0.774,9.672,4.546l40.913,2.321l21.085-7.737
		c-17.604-8.996-34.916-14.798-51.842-16.636c-9.092,0.387-17.7,0.871-23.987,3.675c-0.387,0.29-0.773,0.484-1.16,0.678
		c-13.638,8.414-14.992,25.727-3.289,30.08c8.608-2.709,13.541-6.578,12.187-12.284C53.113,90.626,52.049,88.982,49.534,87.532z"/>
	
		<linearGradient id="SVGID_10_" gradientUnits="userSpaceOnUse" x1="2875.5117" y1="-2749.9116" x2="3035.9475" y2="-2646.2959" gradientTransform="matrix(0.0967 0 0 -0.0967 -235.5044 -164.4777)">
		<stop  offset="0" style="stop-color:#DB2600"/>
		<stop  offset="0.851" style="stop-color:#CA2600"/>
		<stop  offset="0.851" style="stop-color:#C72600"/>
		<stop  offset="1" style="stop-color:#B92600"/>
	</linearGradient>
	<path fill="url(#SVGID_10_)" d="M47.116,105.521c9.575-0.289,13.347-8.027,12.09-13.443c-0.87-3.771-4.159-6.48-9.672-4.546
		c2.515,1.45,3.579,3.095,3.579,4.643c1.354,5.706-3.579,9.575-12.187,12.284C42.667,105.134,44.795,105.521,47.116,105.521z"/>
</g>
</svg>
